# 3ds Max Wavefront OBJ Exporter v0.97b - (c)2007 guruware
# File Created: 20.05.2017 23:32:40

mtllib SIGI_SKTCHFB.mtl

#
# object smoke001
#

v  -2.9508 0.0000 4.6248
v  2.9482 0.0000 4.6248
v  2.9482 -0.0000 -4.6248
v  -2.9508 -0.0000 -4.6248
v  -2.9508 -2.2493 -4.6248
v  -2.9508 -2.2493 4.6248
v  2.9482 -2.2493 -4.6248
v  2.9482 -2.2493 4.6248
# 8 vertices

vn -0.5774 0.5774 0.5774
vn 0.5774 0.5774 0.5774
vn 0.5774 0.5774 -0.5774
vn -0.5774 0.5774 -0.5774
vn -0.5774 -0.5774 -0.5774
vn -0.5774 -0.5774 0.5774
vn 0.5774 -0.5774 -0.5774
vn 0.5774 -0.5774 0.5774
# 8 vertex normals

vt 0.1401 0.8607 0.0000
vt 0.1393 0.5006 0.0000
vt 0.7039 0.4994 0.0000
vt 0.7047 0.8595 0.0000
vt 0.7050 0.9968 0.0000
vt 0.1404 0.9980 0.0000
vt 0.8412 0.4991 0.0000
vt 0.8420 0.8592 0.0000
vt 0.1390 0.3633 0.0000
vt 0.7036 0.3621 0.0000
vt 0.0028 0.8610 0.0000
vt 0.0020 0.5009 0.0000
vt 0.1382 0.0032 0.0000
vt 0.7029 0.0020 0.0000
# 14 texture coords

g smoke001
usemtl wire_000000000
s 1
f 1/1/1 2/2/2 3/3/3 4/4/4 
f 1/1/1 4/4/4 5/5/5 6/6/6 
f 4/4/4 3/3/3 7/7/7 5/8/5 
f 3/3/3 2/2/2 8/9/8 7/10/7 
f 2/2/2 1/1/1 6/11/6 8/12/8 
f 7/10/7 8/9/8 6/13/6 5/14/5 
# 6 polygons

